<?xml version="1.0" standalone="no"?>
<!DOCTYPE svg PUBLIC "-//W3C//DTD SVG 20010904//EN"
 "http://www.w3.org/TR/2001/REC-SVG-20010904/DTD/svg10.dtd">
<svg version="1.0" xmlns="http://www.w3.org/2000/svg"
 width="512.000000pt" height="512.000000pt" viewBox="0 0 512.000000 512.000000"
 preserveAspectRatio="xMidYMid meet">

<g transform="translate(0.000000,512.000000) scale(0.100000,-0.100000)"
fill="#000000" stroke="none">
<path d="M1 4358 c1 -658 3 -754 14 -698 67 329 312 572 643 636 57 11 179 14
537 14 l463 0 4 188 c5 202 15 250 75 351 77 132 233 239 383 264 14 2 -458 5
-1047 6 l-1073 1 1 -762z"/>
<path d="M3048 5100 c103 -27 166 -64 247 -145 126 -126 165 -241 165 -492 l0
-153 464 0 c360 0 481 -3 539 -14 325 -62 583 -321 641 -643 13 -71 14 -4 15
695 l1 772 -1072 -1 -1073 0 73 -19z"/>
<path d="M2138 4699 c-65 -34 -78 -74 -78 -244 l0 -145 500 0 500 0 0 142 c0
167 -14 209 -79 246 -38 22 -46 22 -422 22 -363 -1 -386 -2 -421 -21z"/>
<path d="M706 3899 c-62 -15 -153 -68 -197 -116 -22 -24 -55 -74 -72 -111
l-32 -67 -3 -252 -4 -253 2161 0 2161 0 0 223 c0 236 -8 295 -51 379 -32 63
-111 135 -187 171 l-67 32 -1835 2 c-1085 0 -1851 -3 -1874 -8z"/>
<path d="M402 1893 l3 -808 32 -67 c49 -104 135 -181 248 -222 20 -7 323 -12
952 -16 l921 -5 43 -30 c123 -87 113 -268 -20 -337 l-53 -28 -892 0 c-576 0
-914 4 -956 11 -164 26 -305 97 -426 212 -124 118 -207 265 -239 427 -11 57
-13 -4 -14 -482 l-1 -548 2442 0 2442 0 -50 25 c-35 17 -117 93 -284 259
l-234 235 -51 -29 c-126 -72 -340 -118 -490 -106 -382 32 -689 282 -802 653
-23 78 -26 105 -27 238 -1 161 9 213 60 343 144 358 499 582 888 559 447 -26
804 -379 842 -832 12 -150 -34 -364 -106 -490 l-29 -51 240 -239 c141 -142
247 -256 259 -280 l20 -40 0 1010 c-1 872 -3 1005 -15 971 -54 -153 -256 -180
-350 -47 l-30 43 -3 239 -3 239 -975 0 -974 0 0 -169 c0 -165 -1 -170 -28
-222 -22 -43 -38 -59 -82 -82 -47 -25 -63 -28 -109 -23 -69 6 -126 45 -158
105 -22 41 -23 55 -23 218 l0 173 -985 0 -986 0 3 -807z"/>
<path d="M3703 1761 c-84 -24 -165 -75 -229 -144 -283 -305 -87 -799 329 -833
295 -24 557 238 533 533 -25 314 -332 530 -633 444z"/>
<path d="M5090 107 c-21 -42 -35 -56 -79 -79 l-53 -28 81 0 81 0 0 80 c0 44
-1 80 -2 79 -2 0 -14 -23 -28 -52z"/>
</g>
</svg>
